# xmcd
#
# Track frame offsets: 
#        150
#        11261
#        23860
#        34414
#        46315
#        54792
#        60738
#        72250
#        85969
#        102821
#        131344
#        139506
#        153869
#        182391
#        193738
#        205470
#        221203
#        238896
#        256153
#
# Disc length: 3616 seconds
#
# Revision: 0
# Processed by: cddbd v1.5.2PL0 Copyright (c) Steve Scherf et al.
# Submitted via: ExactAudioCopy v0.95b3
#
DISCID=040e1e13
DTITLE=The Beatles  - Anotherside Yellow Submarine Songtrack - Disc 2 
DTITLE=FLAC
DYEAR=1900
DGENRE=
TTITLE0=Sgt Pepper's Lonely Hearts Club Band (original stereo soundtra
TTITLE0=ck, different mix)
TTITLE1=All You Need Is Love (original stereo soundtrack, different mi
TTITLE1=x)
TTITLE2=Baby, You're A Rich Man (original stereo soundtrack, replaced 
TTITLE2='Hey Bulldog' sequence)
TTITLE3=It's All Too Much (original stereo soundtrack, different mix)
TTITLE4=All Together Now (original stereo soundtrack, very different m
TTITLE4=ix)
TTITLE5=Pre-Face A Submarine In Pepperland (Heinz Eddman talks in germ
TTITLE5=any)
TTITLE6=Yellow Submarine (original overdubs, June 1, 1966)
TTITLE7=Nowhere Man (rough mix of take 4, recorded October 22, 1965)
TTITLE8=All You Need Is Love (different mix w,John new vocal and Ringo d
TTITLE8=rum roll)
TTITLE9=Hey Bulldog (John's home rehearsal, January 6, 1968)
TTITLE10=Hey Bulldog (mono remix 1 from take 10, February 11, 1968)
TTITLE11=Hey Bulldog (stereo remix 1 from take 10, October 29, 1968)
TTITLE12=The Pepperland Suite (recorded at the Olympic Sound Studios o
TTITLE12=n October 22,25, 1967)
TTITLE13=The Inner Light (take 5, January 12, 1967)
TTITLE14=The Inner Light (remix 1 from take 6, January 27, 1970)
TTITLE15=Across The Universe (take 2, February 4, 1968)
TTITLE16=Across The Universe (mono remix 2, from take 7, February 4, 1
TTITLE16=968)
TTITLE17=Across The Universe (stereo remix 2, October 2, 1969)
TTITLE18=Hey Bulldog (alternate version)
EXTD=
EXTT0=
EXTT1=
EXTT2=
EXTT3=
EXTT4=
EXTT5=
EXTT6=
EXTT7=
EXTT8=
EXTT9=
EXTT10=
EXTT11=
EXTT12=
EXTT13=
EXTT14=
EXTT15=
EXTT16=
EXTT17=
EXTT18=
PLAYORDER=
